<?xml version="1.0" encoding="utf-8"?>
<!-- Generator: Adobe Illustrator 24.2.1, SVG Export Plug-In . SVG Version: 6.00 Build 0)  -->
<svg version="1.1" id="Capa_1" xmlns="http://www.w3.org/2000/svg" xmlns:xlink="http://www.w3.org/1999/xlink" x="0px" y="0px"
	 viewBox="0 0 32 32" style="enable-background:new 0 0 32 32;" xml:space="preserve">
<style type="text/css">
	.st0{fill:none;stroke:#000000;stroke-miterlimit:10;}
	.st1{clip-path:url(#SVGID_2_);}
	.st2{clip-path:url(#SVGID_4_);}
	.st3{clip-path:url(#SVGID_6_);}
	.st4{clip-path:url(#SVGID_8_);}
	.st5{clip-path:url(#SVGID_10_);}
	.st6{clip-path:url(#SVGID_12_);}
	.st7{clip-path:url(#SVGID_14_);}
	.st8{clip-path:url(#SVGID_16_);}
	.st9{clip-path:url(#SVGID_18_);}
	.st10{clip-path:url(#SVGID_20_);}
	.st11{clip-path:url(#SVGID_22_);}
	.st12{clip-path:url(#SVGID_24_);}
	.st13{clip-path:url(#SVGID_26_);}
	.st14{clip-path:url(#SVGID_28_);}
	.st15{clip-path:url(#SVGID_30_);}
	.st16{clip-path:url(#SVGID_32_);}
	.st17{clip-path:url(#SVGID_34_);}
	.st18{clip-path:url(#SVGID_36_);}
	.st19{clip-path:url(#SVGID_38_);}
	.st20{clip-path:url(#SVGID_40_);}
	.st21{clip-path:url(#SVGID_42_);}
	.st22{clip-path:url(#SVGID_44_);}
	.st23{clip-path:url(#SVGID_46_);}
	.st24{fill:none;stroke:#000000;stroke-linejoin:bevel;stroke-miterlimit:10;}
	.st25{fill:none;stroke:#000000;stroke-linecap:round;stroke-miterlimit:10;}
	.st26{fill:#FFFFFF;}
</style>
<g>
	<rect x="0.7" y="17.23" transform="matrix(0.9365 -0.3506 0.3506 0.9365 -5.2792 6.6175)" width="29.87" height="1.31"/>
	<rect x="15.71" y="2.95" transform="matrix(0.3506 -0.9365 0.9365 0.3506 -6.1273 26.9428)" width="1.31" height="29.87"/>
	<path d="M27.39,25.47H4.49l-0.06-0.82c-0.02-0.23-0.38-5.58,2.72-8.91c1.56-1.68,3.69-2.53,6.36-2.53h10.15L22.88,8.3H10.31V6.53
		h14.07L27.39,25.47z M6.18,23.7h19.15l-1.39-8.72H13.49c-2.15,0-3.85,0.67-5.06,1.96C6.52,19.02,6.2,22.22,6.18,23.7z"/>
</g>
</svg>
